<svg xmlns="http://www.w3.org/2000/svg" xmlns:xlink="http://www.w3.org/1999/xlink" width="48" zoomAndPan="magnify" viewBox="0 0 36 36.000001" height="48" preserveAspectRatio="xMidYMid meet" version="1.0"><defs><clipPath id="02f7367cce"><path d="M 2.132812 9 L 33.511719 9 L 33.511719 34 L 2.132812 34 Z M 2.132812 9 " clip-rule="nonzero"/></clipPath><clipPath id="ccfe6be1d6"><path d="M 33 5 L 33.511719 5 L 33.511719 27 L 33 27 Z M 33 5 " clip-rule="nonzero"/></clipPath></defs><path fill="#c026d3" d="M 16.367188 13.394531 C 17.308594 11.820312 18.671875 10.527344 20.300781 9.6875 L 20.300781 7.851562 L 22.199219 7.851562 L 18.332031 1.101562 L 14.464844 7.851562 L 16.367188 7.851562 Z M 16.367188 13.394531 " fill-opacity="1" fill-rule="nonzero"/><g clip-path="url(#02f7367cce)"><path fill="#a78bfa" d="M 24.757812 9.988281 C 23.121094 9.988281 21.59375 10.460938 20.300781 11.28125 C 18.0625 12.699219 16.527344 15.148438 16.367188 17.964844 C 16.355469 18.128906 16.351562 18.296875 16.351562 18.460938 L 16.351562 18.535156 C 16.28125 19.519531 15.914062 20.414062 15.34375 21.144531 C 14.472656 22.257812 13.125 22.972656 11.613281 22.972656 C 8.988281 22.972656 6.855469 20.820312 6.855469 18.179688 L 6.855469 9.792969 L 2.925781 9.792969 L 2.925781 18.179688 C 2.925781 23.003906 6.820312 26.933594 11.613281 26.933594 C 13.359375 26.933594 14.988281 26.410156 16.351562 25.511719 L 16.351562 33.707031 L 20.285156 33.707031 L 20.285156 25.632812 C 21.582031 26.457031 23.117188 26.933594 24.757812 26.933594 C 29.394531 26.933594 33.164062 23.132812 33.164062 18.460938 C 33.164062 13.789062 29.394531 9.988281 24.757812 9.988281 Z M 24.757812 22.972656 C 22.347656 22.972656 20.375 21.039062 20.289062 18.628906 C 20.289062 18.625 20.285156 18.625 20.289062 18.625 C 20.296875 18.476562 20.300781 18.328125 20.300781 18.179688 L 20.300781 18.101562 C 20.480469 15.78125 22.410156 13.953125 24.757812 13.953125 C 27.226562 13.953125 29.234375 15.976562 29.234375 18.460938 C 29.234375 20.949219 27.226562 22.972656 24.757812 22.972656 Z M 24.757812 22.972656 " fill-opacity="1" fill-rule="nonzero"/></g><g clip-path="url(#ccfe6be1d6)"><path fill="#ffffff" d="M 35.117188 13.625 C 34.699219 13.625 34.359375 13.503906 34.101562 13.265625 C 33.839844 13.023438 33.710938 12.722656 33.710938 12.359375 C 33.710938 11.957031 33.839844 11.632812 34.101562 11.394531 C 34.359375 11.152344 34.699219 11.03125 35.117188 11.03125 L 42.035156 11.03125 C 42.457031 11.03125 42.792969 11.152344 43.054688 11.394531 C 43.3125 11.632812 43.441406 11.957031 43.441406 12.359375 C 43.441406 12.71875 43.3125 13.023438 43.054688 13.265625 C 42.792969 13.503906 42.457031 13.625 42.035156 13.625 Z M 41.765625 26.9375 C 40.769531 26.9375 39.871094 26.679688 39.070312 26.167969 C 38.273438 25.652344 37.644531 24.953125 37.183594 24.070312 C 36.726562 23.183594 36.496094 22.1875 36.496094 21.082031 L 36.496094 6.683594 C 36.496094 6.242188 36.636719 5.878906 36.914062 5.597656 C 37.195312 5.316406 37.554688 5.175781 37.992188 5.175781 C 38.433594 5.175781 38.792969 5.316406 39.070312 5.597656 C 39.351562 5.878906 39.492188 6.242188 39.492188 6.683594 L 39.492188 21.082031 C 39.492188 21.886719 39.710938 22.558594 40.148438 23.101562 C 40.589844 23.644531 41.128906 23.917969 41.765625 23.917969 L 42.785156 23.917969 C 43.144531 23.917969 43.449219 24.058594 43.699219 24.339844 C 43.949219 24.621094 44.070312 24.984375 44.070312 25.425781 C 44.070312 25.871094 43.90625 26.230469 43.578125 26.515625 C 43.25 26.796875 42.824219 26.9375 42.304688 26.9375 Z M 41.765625 26.9375 " fill-opacity="1" fill-rule="nonzero"/></g></svg>